<svg width="26" height="26" viewBox="0 0 26 26" fill="none" xmlns="http://www.w3.org/2000/svg">
<path fill-rule="evenodd" clip-rule="evenodd" d="M12.9995 0.572754C19.8635 0.572754 25.4266 6.13586 25.4266 12.9999C25.4266 19.864 19.8635 25.4271 12.9995 25.4271C6.13537 25.4271 0.572266 19.864 0.572266 12.9999C0.572266 6.13586 6.13537 0.572754 12.9995 0.572754Z" fill="url(#paint0_radial_3693_8084)"/>
<path d="M8.46938 10.1699C10.9694 7.72819 15.0276 7.72819 17.5276 10.1699L17.8286 10.466C17.9548 10.5874 17.9548 10.7864 17.8286 10.9078L16.7995 11.9127C16.7364 11.9758 16.6344 11.9758 16.5713 11.9127L16.1587 11.5097C14.4111 9.80586 11.5859 9.80586 9.83831 11.5097L9.39656 11.9418C9.33345 12.0049 9.23151 12.0049 9.16841 11.9418L8.13928 10.9369C8.01307 10.8156 8.01307 10.6165 8.13928 10.4952L8.46938 10.1699ZM19.6587 12.2476L20.5762 13.1408C20.7024 13.2622 20.7024 13.4612 20.5762 13.5826L16.4451 17.6165C16.3189 17.7379 16.115 17.7379 15.9936 17.6165L13.0616 14.7525C13.0325 14.7233 12.9791 14.7233 12.95 14.7525L10.0179 17.6165C9.89171 17.7379 9.68782 17.7379 9.56646 17.6165L5.42083 13.5826C5.29462 13.4612 5.29462 13.2622 5.42083 13.1408L6.33831 12.2476C6.46452 12.1262 6.66841 12.1262 6.78976 12.2476L9.7218 15.1117C9.75093 15.1408 9.80433 15.1408 9.83345 15.1117L12.7655 12.2476C12.8917 12.1262 13.0956 12.1262 13.2169 12.2476L16.149 15.1117C16.1781 15.1408 16.2315 15.1408 16.2606 15.1117L19.1927 12.2476C19.3286 12.1262 19.5325 12.1262 19.6587 12.2476Z" fill="white"/>
<defs>
<radialGradient id="paint0_radial_3693_8084" cx="0" cy="0" r="1" gradientUnits="userSpaceOnUse" gradientTransform="translate(0.572343 13.0003) scale(24.8544)">
<stop stop-color="#5D9DF6"/>
<stop offset="1" stop-color="#006FFF"/>
</radialGradient>
</defs>
</svg>
